<?xml version="1.0" encoding="UTF-8"?>
<svg width="510.44" height="554.89001" xmlns="http://www.w3.org/2000/svg">
 <title>engrenagem</title>
 <defs>
  <filter id="filter3340">
   <feGaussianBlur stdDeviation="3.959091" id="feGaussianBlur3342"/>
  </filter>
  <filter id="filter3390">
   <feGaussianBlur stdDeviation="10.093933" id="feGaussianBlur3392"/>
  </filter>
 </defs>
 <metadata id="metadata7">image/svg+xml</metadata>
 <g>
  <title>Layer 1</title>
  <g id="layer1">
   <path id="path3344" d="m288.463013,26.2845c-2.308014,18.203999 -17.173035,32.2724 -35.177017,32.2724c-17.088989,0.000099 -31.376999,-12.6553 -34.757996,-29.5098c-12.520996,2.824699 -24.597,6.881599 -36.136002,12.023701c6.324005,16.847298 0.132004,36.479698 -15.281006,45.803001c-14.311981,8.656799 -32.013885,5.707298 -43.088089,-6.090302c-7.766602,7.565796 -14.993805,15.762596 -21.543808,24.518501c13.789108,11.220001 17.903801,31.682999 8.929108,47.968994c-8.559708,15.533005 -26.214706,22.174011 -41.8591,16.764008c-3.749405,12.075989 -6.5,24.626999 -8.120201,37.546997c17.970695,1.832993 32.031097,17.705002 32.031097,37.011993c0,18.188019 -12.476601,33.313019 -28.944801,36.541992c1.225304,5.786011 2.645798,11.482025 4.314804,17.078003c3.221298,-0.888 6.515297,-1.300995 9.768097,-1.223999c11.992706,0.283997 23.561401,6.944 29.9935,18.615997c8.755104,15.888 5.047005,35.743011 -7.9403,47.122009c7.246498,9.993011 15.320801,19.296997 24.120705,27.78299c6.691101,-8.491974 16.518997,-13.259979 26.638,-13.498993c6.281998,-0.14798 12.651001,1.460999 18.487,4.992004c16.181,9.786987 22.218002,30.92099 14.263,48.28299c11.001999,4.772003 22.487,8.558014 34.367996,11.238007c3.380997,-16.854004 17.669006,-29.509003 34.757996,-29.509003c18.003983,0 32.869003,14.068024 35.177017,32.272003c10.758972,-1.53598 21.251984,-3.942993 31.401978,-7.188995c-5.309998,-16.453003 1.007996,-35.092987 15.911011,-44.108002c5.304993,-3.208984 11.083984,-4.804993 16.80899,-4.959991c11.51001,-0.311005 22.806,5.277008 29.813995,15.570984c10.235016,-8.11499 19.708008,-17.240997 28.286011,-27.217987c-12.303009,-11.488007 -15.662994,-30.830994 -7.10199,-46.368011c6.432007,-11.671997 18.001007,-18.332977 29.993988,-18.615997c4.783997,-0.113007 9.643005,0.796021 14.261993,2.794006c4.145996,-10.752991 7.468018,-21.951996 9.888,-33.497009c-15.43399,-4.041992 -26.876984,-18.682983 -26.876984,-36.102997c0,-18.526001 12.950989,-33.895996 29.873993,-36.729996c-2.347992,-18.923004 -7.092987,-37.050995 -13.902985,-54.059006c-16.567017,8.315002 -36.71701,2.001007 -46.054016,-14.944c-8.730011,-15.840996 -5.049988,-35.631996 7.850006,-47.026993c-7.744019,-8.739403 -16.182007,-16.8134 -25.229004,-24.078796c-10.889008,13.434296 -29.713989,17.254196 -44.79599,8.130898c-14.175018,-8.574402 -20.578003,-25.8633 -16.600006,-41.690502c-10.811005,-3.596298 -22.015015,-6.266899 -33.528992,-7.911098zm-27.387024,134.363495c1.229004,0 2.442017,0.029999 3.656006,0.095001c4.854004,0.258011 9.59201,1.031006 14.143005,2.26001c1.136993,0.306992 2.270996,0.640991 3.385986,1.00499c2.229004,0.727005 4.402008,1.56601 6.532013,2.511002c1.065002,0.472 2.108978,0.979996 3.145996,1.507004c0.518005,0.263 1.046997,0.539993 1.558014,0.815994c0.070984,0.03801 0.138,0.087006 0.209991,0.126007c0.694977,0.375992 1.386017,0.761993 2.066986,1.160995c0.751007,0.442001 1.483002,0.882996 2.218018,1.350006c1.958008,1.248001 3.863983,2.584991 5.692993,4.018997c0.684998,0.537003 1.369995,1.100998 2.036987,1.662994c0.410004,0.346008 0.826019,0.681 1.229004,1.036011c0.542999,0.478989 1.058014,0.980988 1.588013,1.475998c0.992004,0.927002 1.96701,1.873001 2.906006,2.856995c0.604004,0.632996 1.186005,1.290009 1.768005,1.945999c0.009979,0.011002 0.019989,0.020004 0.029999,0.031006c0.268982,0.304001 0.544983,0.602997 0.80899,0.910995c0.678009,0.791 1.332001,1.596008 1.977997,2.417007c0.181,0.230988 0.360016,0.457993 0.539001,0.690994c0.537994,0.699997 1.074005,1.414001 1.588013,2.134995c0.640991,0.899002 1.254974,1.80101 1.858002,2.731003c0.84198,1.298996 1.661987,2.630997 2.426971,3.987c0.436005,0.772003 0.848999,1.565002 1.258026,2.354004c1.096985,2.115005 2.095001,4.266998 2.996979,6.498993c0.39502,0.977005 0.782013,1.952011 1.138,2.951004c0.037018,0.102005 0.054016,0.210999 0.089996,0.313995c0.31601,0.89801 0.615997,1.81601 0.899017,2.731003c0.039001,0.125 0.082001,0.251007 0.119995,0.376999c0.109985,0.362 0.194,0.733002 0.299988,1.098007c0.258026,0.895996 0.522003,1.789993 0.749023,2.699997c0.061981,0.251007 0.118988,0.501999 0.178986,0.753998c0.153992,0.643005 0.282013,1.296005 0.420013,1.945999c0.169983,0.802002 0.334991,1.606003 0.479004,2.417007c0.007996,0.042999 0.02298,0.082993 0.029999,0.125992c0.013,0.072998 0.017975,0.147003 0.029999,0.220001c0.162994,0.936996 0.320984,1.876007 0.449982,2.824997c0.007996,0.063004 0.020996,0.125 0.029999,0.188004c0.027008,0.208008 0.03302,0.419998 0.059998,0.628006c0.109009,0.876999 0.219025,1.751999 0.299011,2.636993c0.100006,1.100998 0.186005,2.214005 0.23999,3.328003c0.061005,1.261002 0.089996,2.552994 0.089996,3.830002c0,2.574997 -0.115997,5.089005 -0.359985,7.597c-0.001007,0.011002 0.001007,0.020996 0,0.031998c-0.121002,1.242996 -0.269989,2.479004 -0.449005,3.703995c-0.001984,0.01001 0.001007,0.021011 0,0.031006c-0.178986,1.225006 -0.394012,2.438004 -0.628998,3.641998c-0.002014,0.009995 0.002014,0.020996 0,0.031006c-0.118011,0.60199 -0.252991,1.192993 -0.390015,1.789993c-0.131989,0.598007 -0.273987,1.197006 -0.418976,1.789001c-0.003021,0.009995 0.001984,0.022003 0,0.031998c-0.291016,1.182007 -0.615021,2.35701 -0.959015,3.516006c-0.002991,0.009003 0.002991,0.022003 0,0.031006c-0.691986,2.326996 -1.5,4.621002 -2.397003,6.843994c-0.901978,2.231995 -1.899994,4.384003 -2.996979,6.497986c-0.003998,0.009003 0.003998,0.024017 0,0.032013c-1.093018,2.105988 -2.290009,4.144012 -3.565002,6.121002c-0.005005,0.007996 0.003998,0.024994 0,0.031982c-0.636017,0.985016 -1.299011,1.937012 -1.977997,2.888c-0.005005,0.007019 0.004974,0.025024 0,0.031006c-0.679016,0.951996 -1.406006,1.878998 -2.127014,2.794006c-0.005005,0.006989 0.005005,0.026001 0,0.032013c-2.901001,3.678986 -6.135986,7.070984 -9.648987,10.108978c-3.518005,3.042023 -7.319,5.738007 -11.356018,8.036011c-2.017975,1.149994 -4.10199,2.195007 -6.231995,3.139984c-2.130005,0.944 -4.303009,1.784027 -6.532013,2.511017c-1.11499,0.363983 -2.248993,0.697998 -3.385986,1.005005c-4.550995,1.22699 -9.289001,2.001984 -14.143005,2.259979c-1.213989,0.065002 -2.427002,0.094025 -3.656006,0.094025c-1.227966,0 -2.441986,-0.029022 -3.654968,-0.094025c-4.854019,-0.257996 -9.593018,-1.031982 -14.143021,-2.259979c-1.138,-0.307007 -2.270996,-0.641022 -3.386002,-1.005005c-2.229996,-0.727997 -4.401993,-1.56601 -6.531998,-2.511017c-2.130005,-0.944977 -4.214005,-1.98999 -6.231995,-3.139984c-1.01001,-0.575012 -1.988007,-1.196991 -2.96701,-1.821014c-0.978989,-0.622986 -1.955994,-1.276978 -2.905991,-1.945984c-0.947998,-0.67099 -1.873001,-1.355011 -2.787003,-2.071991c-1.828003,-1.433014 -3.587006,-2.946014 -5.272995,-4.552002c-0.839005,-0.798004 -1.657013,-1.641022 -2.457001,-2.480011c-0.812012,-0.848999 -1.596008,-1.684998 -2.368011,-2.574005c-0.00499,-0.005981 0.005005,-0.026001 0,-0.031982c-0.765991,-0.884003 -1.520996,-1.778015 -2.246994,-2.700012c-0.725998,-0.92099 -1.443008,-1.867004 -2.126999,-2.825012c-0.684006,-0.957977 -1.337997,-1.925995 -1.977997,-2.919983c-1.279999,-1.985016 -2.469009,-4.037994 -3.56601,-6.153015c-1.095993,-2.113983 -2.093994,-4.265991 -2.996002,-6.497986c-0.003998,-0.009003 0.004013,-0.02301 0,-0.031006c-0.446991,-1.108002 -0.891998,-2.225983 -1.287994,-3.359985c-0.003998,-0.009003 0.003006,-0.022003 0,-0.031006c-0.399994,-1.143005 -0.761993,-2.285004 -1.108994,-3.453003c-0.340012,-1.143005 -0.641006,-2.28801 -0.929001,-3.45401c-0.020004,-0.082993 -0.039001,-0.166992 -0.059998,-0.250992c-0.258011,-1.059998 -0.504013,-2.154999 -0.719009,-3.233002c-0.054001,-0.270996 -0.098999,-0.544006 -0.149994,-0.815994c-0.143005,-0.764008 -0.298004,-1.520004 -0.419006,-2.292007c-0.061005,-0.386993 -0.125,-0.772995 -0.179993,-1.162003c-0.003998,-0.029999 0.003998,-0.062988 0,-0.093994c-0.143005,-1.020996 -0.257004,-2.042007 -0.360001,-3.076004c-0.016998,-0.179001 -0.042999,-0.354996 -0.059006,-0.533997c-0.097992,-1.059006 -0.154999,-2.130997 -0.209991,-3.201996c-0.005005,-0.085007 -0.026001,-0.166 -0.030014,-0.251007c-0.061996,-1.272003 -0.089996,-2.542999 -0.089996,-3.830002c0,-1.287994 0.028,-2.55899 0.089996,-3.830002c0.059006,-1.258987 0.14801,-2.518997 0.269012,-3.76799c0.000992,-0.01001 -0.001007,-0.021011 0,-0.031006c0.120987,-1.242996 0.271988,-2.479996 0.449997,-3.703995c0.000992,-0.011002 -0.001999,-0.022003 0,-0.031998c0.179001,-1.223999 0.393997,-2.437012 0.628998,-3.641006c0.001999,-0.009995 -0.001999,-0.022003 0,-0.031998c0.235992,-1.203995 0.518997,-2.395996 0.809006,-3.578995c0.002991,-0.009003 -0.001999,-0.021011 0,-0.031006c0.291,-1.182007 0.61499,-2.356995 0.959,-3.516006c0.002991,-0.009995 -0.003006,-0.021988 0,-0.031998c0.347,-1.167999 0.709,-2.309998 1.108994,-3.453003c0.298996,-0.855988 0.630005,-1.700989 0.958008,-2.542999c0.037994,-0.095001 0.082993,-0.186996 0.119995,-0.281998c0.162003,-0.408997 0.311996,-0.819992 0.479996,-1.224991c0.259003,-0.623001 0.533997,-1.237 0.809006,-1.852005c0.188004,-0.421005 0.373993,-0.837997 0.569,-1.255997c0.431,-0.917999 0.882996,-1.833008 1.347992,-2.731003c0.005005,-0.007996 -0.003998,-0.022995 0,-0.031006c0.549011,-1.056992 1.113007,-2.082001 1.708008,-3.108002c0.599991,-1.03299 1.212997,-2.04599 1.858002,-3.044998c0.636002,-0.985992 1.298996,-1.936996 1.977997,-2.888c0.003998,-0.006989 -0.005005,-0.024994 0,-0.031998c0.679001,-0.951004 1.405991,-1.877991 2.126999,-2.793991c0.005005,-0.006012 -0.005005,-0.025009 0,-0.031006c0.725998,-0.921997 1.481003,-1.817001 2.246994,-2.699997c2.300003,-2.651001 4.763,-5.126999 7.401001,-7.408997c3.518005,-3.042007 7.320007,-5.738007 11.35701,-8.037003c2.01799,-1.149002 4.10199,-2.195007 6.231995,-3.139008c2.130005,-0.944 4.302002,-1.783997 6.531998,-2.511002c1.115005,-0.363998 2.248001,-0.697998 3.386002,-1.00499c4.550003,-1.228012 9.289001,-2.001999 14.143021,-2.26001c1.212982,-0.065002 2.427002,-0.095001 3.654968,-0.095001l0,0z" filter="url(#filter3390)" stroke-miterlimit="4" stroke-width="0" fill="#000000" opacity="0.884849"/>
   <path d="m289.638641,27.241211c-2.407593,18.120819 -17.910828,32.125 -36.6875,32.125c-17.82254,0.000019 -32.723724,-12.597523 -36.25,-29.375c-13.059113,2.811798 -25.653015,6.85014 -37.6875,11.96875c6.595428,16.770359 0.137299,36.312965 -15.9375,45.59375c-14.925446,8.617218 -33.387878,5.681183 -44.9375,-6.0625c-8.09996,7.531219 -15.637527,15.690613 -22.46875,24.40625c14.381088,11.168816 18.672455,31.538086 9.3125,47.75c-8.9272,15.462372 -27.340164,22.07309 -43.65625,16.6875c-3.910324,12.020294 -6.779072,24.514648 -8.46875,37.375c18.742218,1.825348 33.40625,17.624084 33.40625,36.84375c0.000015,18.104767 -13.012253,33.160675 -30.1875,36.375c1.277958,5.759033 2.759418,11.429169 4.5,17c3.359619,-0.88443 6.79512,-1.295258 10.1875,-1.21875c12.507599,0.282135 24.572922,6.912079 31.28125,18.53125c9.130905,15.815216 5.263657,35.579224 -8.28125,46.90625c7.557648,9.947815 15.978577,19.208435 25.15625,27.65625c6.978355,-8.453186 17.227966,-13.199463 27.78125,-13.4375c6.551605,-0.147766 13.195038,1.454834 19.28125,4.96875c16.875458,9.743042 23.171204,30.780212 14.875,48.0625c11.474548,4.750671 23.452393,8.51947 35.84375,11.1875c3.526276,-16.777466 18.42746,-29.375 36.25,-29.375c18.776642,0 34.279877,14.00415 36.6875,32.125c11.220398,-1.52948 22.164825,-3.92511 32.75,-7.15625c-5.537567,-16.378113 1.051727,-34.933044 16.59375,-43.90625c5.532928,-3.194458 11.560608,-4.783447 17.53125,-4.9375c12.003967,-0.309692 23.785126,5.253113 31.093781,15.5c10.674255,-8.078247 20.554321,-17.16217 29.5,-27.09375c-12.830872,-11.435852 -16.335327,-30.690674 -7.40625,-46.15625c6.708313,-11.619171 18.773621,-18.249115 31.28125,-18.53125c4.98938,-0.112549 10.057068,0.792389 14.875,2.78125c4.323181,-10.703735 7.788391,-21.85141 10.3125,-33.34375c-16.097595,-4.023407 -28.03125,-18.597382 -28.03125,-35.9375c0,-18.441772 13.506348,-33.741425 31.15625,-36.5625c-2.448608,-18.8367 -7.396851,-36.882111 -14.5,-53.8125c-17.277466,8.27774 -38.29303,1.992157 -48.03125,-14.875c-9.104187,-15.76889 -5.266541,-35.469391 8.1875,-46.8125c-8.076782,-8.699493 -16.877197,-16.736565 -26.3125,-23.96875c-11.356323,13.372879 -30.989044,17.175285 -46.718781,8.09375c-14.783478,-8.535233 -21.461487,-25.745182 -17.3125,-41.5c-11.275085,-3.579941 -22.960236,-6.238251 -34.96875,-7.875zm-28.5625,133.75c1.281433,0 2.546936,0.029541 3.8125,0.09375c5.062195,0.25708 10.004211,1.0271 14.75,2.25c1.186493,0.305511 2.368439,0.638062 3.53125,1c2.325562,0.724365 4.591003,1.559204 6.8125,2.5c1.110809,0.470093 2.200317,0.975403 3.28125,1.5c0.540466,0.262299 1.09201,0.537384 1.625,0.8125c0.074493,0.038208 0.144409,0.086578 0.21875,0.125c0.725006,0.374786 1.445404,0.758545 2.15625,1.15625c0.782654,0.440002 1.546692,0.878265 2.3125,1.34375c2.042053,1.242035 4.030701,2.572784 5.9375,4c0.715088,0.534912 1.429108,1.09668 2.125,1.65625c0.42749,0.344543 0.861633,0.677521 1.28125,1.03125c0.566559,0.476318 1.104279,0.976074 1.65625,1.46875c1.034485,0.923401 2.051941,1.864441 3.03125,2.84375c0.630219,0.630585 1.236755,1.28479 1.84375,1.9375c0.010101,0.010864 0.021149,0.020386 0.03125,0.03125c0.28067,0.302185 0.568146,0.599457 0.84375,0.90625c0.707367,0.787384 1.389099,1.589081 2.0625,2.40625c0.189026,0.229401 0.37619,0.455811 0.5625,0.6875c0.56134,0.696747 1.119873,1.407928 1.65625,2.125c0.668396,0.895203 1.309052,1.79303 1.9375,2.71875c0.877899,1.293182 1.733856,2.618927 2.53125,3.96875c0.454407,0.768585 0.885345,1.557739 1.3125,2.34375c1.144043,2.105103 2.184814,4.247131 3.125,6.46875c0.412109,0.973145 0.816345,1.943512 1.1875,2.9375c0.037903,0.101471 0.056274,0.210815 0.09375,0.3125c0.32959,0.894623 0.641815,1.808258 0.9375,2.71875c0.040619,0.125031 0.085022,0.249664 0.125,0.375c0.115051,0.360809 0.20285,0.73056 0.3125,1.09375c0.269318,0.891998 0.544952,1.781708 0.78125,2.6875c0.065033,0.249268 0.125,0.499725 0.1875,0.75c0.160065,0.640106 0.294159,1.290955 0.4375,1.9375c0.17688,0.797852 0.34903,1.59903 0.5,2.40625c0.007874,0.042145 0.023468,0.082825 0.03125,0.125c0.013397,0.072327 0.018066,0.146362 0.03125,0.21875c0.169891,0.93277 0.334106,1.867981 0.46875,2.8125c0.008972,0.062988 0.02243,0.124481 0.03125,0.1875c0.028931,0.206757 0.035278,0.417725 0.0625,0.625c0.114594,0.872406 0.228516,1.743408 0.3125,2.625c0.104279,1.095642 0.193756,2.203857 0.25,3.3125c0.063202,1.255402 0.09375,2.541473 0.09375,3.8125c0,2.562866 -0.121246,5.066254 -0.375,7.5625c-0.001038,0.010254 0.001038,0.020996 0,0.03125c-0.126343,1.237671 -0.282318,2.468536 -0.46875,3.6875c-0.001556,0.010162 0.001556,0.021088 0,0.03125c-0.18692,1.218811 -0.410767,2.426422 -0.65625,3.625c-0.002045,0.01001 0.002045,0.02124 0,0.03125c-0.122986,0.599243 -0.263916,1.187531 -0.40625,1.78125c-0.137573,0.595062 -0.285706,1.191742 -0.4375,1.78125c-0.002502,0.009796 0.002533,0.021484 0,0.03125c-0.303467,1.176575 -0.641052,2.34671 -1,3.5c-0.00296,0.009521 0.00296,0.021729 0,0.03125c-0.721802,2.315826 -1.563629,4.599915 -2.5,6.8125c-0.940186,2.221619 -1.980957,4.363647 -3.125,6.46875c-0.004395,0.008087 0.004395,0.023163 0,0.03125c-1.140442,2.09668 -2.388397,4.125092 -3.71875,6.09375c-0.004883,0.007233 0.004883,0.024017 0,0.03125c-0.663239,0.980743 -1.354401,1.928345 -2.0625,2.875c-0.005096,0.006836 0.005096,0.024445 0,0.03125c-0.708618,0.946716 -1.466797,1.870209 -2.21875,2.78125c-0.005188,0.006287 0.005188,0.024963 0,0.03125c-3.02475,3.662292 -6.399231,7.03891 -10.0625,10.0625c-3.669037,3.02832 -7.633789,5.712189 -11.84375,8c-2.105103,1.144043 -4.278381,2.184814 -6.5,3.125c-2.221497,0.940063 -4.486938,1.776245 -6.8125,2.5c-1.162811,0.361938 -2.344757,0.694519 -3.53125,1c-4.745789,1.221863 -9.687805,1.993164 -14.75,2.25c-1.265564,0.06424 -2.531067,0.09375 -3.8125,0.09375c-1.281433,0 -2.546936,-0.02951 -3.8125,-0.09375c-5.062195,-0.25708 -10.004211,-1.0271 -14.75,-2.25c-1.186493,-0.305481 -2.368439,-0.638062 -3.53125,-1c-2.325562,-0.724365 -4.591003,-1.559174 -6.8125,-2.5c-2.221619,-0.940186 -4.394897,-1.980957 -6.5,-3.125c-1.05249,-0.572357 -2.072723,-1.191467 -3.09375,-1.8125c-1.021027,-0.621002 -2.040466,-1.271149 -3.03125,-1.9375c-0.988068,-0.667694 -1.952789,-1.349304 -2.90625,-2.0625c-1.906952,-1.426392 -3.740753,-2.93219 -5.5,-4.53125c-0.874054,-0.794464 -1.727203,-1.633942 -2.5625,-2.46875c-0.845917,-0.845398 -1.664154,-1.677307 -2.46875,-2.5625c-0.00528,-0.005798 0.00528,-0.025452 0,-0.03125c-0.799469,-0.880035 -1.58667,-1.769745 -2.34375,-2.6875c-0.757141,-0.917328 -1.505554,-1.859039 -2.21875,-2.8125c-0.713135,-0.953888 -1.394867,-1.917786 -2.0625,-2.90625c-1.335388,-1.976105 -2.574707,-4.019897 -3.71875,-6.125c-1.144012,-2.105103 -2.184814,-4.247131 -3.125,-6.46875c-0.003754,-0.008881 0.003754,-0.022369 0,-0.03125c-0.466278,-1.102234 -0.929901,-2.215179 -1.34375,-3.34375c-0.003387,-0.009216 0.003387,-0.022003 0,-0.03125c-0.416748,-1.137878 -0.794373,-2.274414 -1.15625,-3.4375c-0.354095,-1.137695 -0.668396,-2.277802 -0.96875,-3.4375c-0.021515,-0.083069 -0.04129,-0.16684 -0.0625,-0.25c-0.26944,-1.055634 -0.526306,-2.145874 -0.75,-3.21875c-0.056091,-0.269623 -0.103088,-0.541809 -0.15625,-0.8125c-0.149597,-0.760559 -0.311371,-1.512573 -0.4375,-2.28125c-0.06311,-0.384979 -0.130341,-0.769287 -0.1875,-1.15625c-0.004486,-0.030426 0.004456,-0.063324 0,-0.09375c-0.149078,-1.016693 -0.267731,-2.032623 -0.375,-3.0625c-0.018524,-0.177643 -0.045227,-0.35321 -0.0625,-0.53125c-0.102051,-1.053772 -0.161469,-2.12085 -0.21875,-3.1875c-0.004547,-0.084412 -0.027008,-0.165497 -0.03125,-0.25c-0.064209,-1.265594 -0.09375,-2.531067 -0.09375,-3.8125c0,-1.281433 0.029541,-2.546936 0.09375,-3.8125c0.061249,-1.252991 0.154938,-2.507202 0.28125,-3.75c0.001038,-0.010315 -0.001038,-0.020935 0,-0.03125c0.125824,-1.237793 0.282837,-2.468384 0.46875,-3.6875c0.001556,-0.010162 -0.001556,-0.021057 0,-0.03125c0.186401,-1.218933 0.411285,-2.42627 0.65625,-3.625c0.002045,-0.009949 -0.002045,-0.021271 0,-0.03125c0.245453,-1.198608 0.54126,-2.385651 0.84375,-3.5625c0.002502,-0.009705 -0.002502,-0.021515 0,-0.03125c0.302948,-1.176727 0.641541,-2.346558 1,-3.5c0.00293,-0.00943 -0.00293,-0.02182 0,-0.03125c0.361877,-1.162781 0.739502,-2.299957 1.15625,-3.4375c0.312256,-0.852295 0.657715,-1.693878 1,-2.53125c0.038879,-0.095032 0.085754,-0.186401 0.125,-0.28125c0.168274,-0.406799 0.324768,-0.815613 0.5,-1.21875c0.270264,-0.620972 0.557068,-1.23175 0.84375,-1.84375c0.196381,-0.419708 0.389801,-0.834595 0.59375,-1.25c0.449249,-0.914001 0.92038,-1.824707 1.40625,-2.71875c0.004333,-0.007935 -0.004303,-0.023315 0,-0.03125c0.57196,-1.05249 1.160675,-2.072723 1.78125,-3.09375c0.625092,-1.028381 1.264679,-2.036377 1.9375,-3.03125c0.662872,-0.980927 1.354797,-1.928162 2.0625,-2.875c0.004883,-0.006531 -0.004883,-0.024719 0,-0.03125c0.708252,-0.946869 1.467163,-1.870026 2.21875,-2.78125c0.005005,-0.006042 -0.004974,-0.025208 0,-0.03125c0.75708,-0.917267 1.544281,-1.807953 2.34375,-2.6875c2.39859,-2.638855 4.966766,-5.103546 7.71875,-7.375c3.669037,-3.02832 7.633789,-5.712189 11.84375,-8c2.105103,-1.144012 4.278381,-2.184814 6.5,-3.125c2.221497,-0.940063 4.486938,-1.776215 6.8125,-2.5c1.162811,-0.361938 2.344757,-0.694489 3.53125,-1c4.745789,-1.221863 9.687805,-1.993134 14.75,-2.25c1.265564,-0.064209 2.531067,-0.09375 3.8125,-0.09375z" id="path2274" stroke-miterlimit="4" stroke-width="0" fill="#c0c0c0"/>
   <path d="m261.060516,64.147461c-94.470856,0.000015 -171.124985,76.685394 -171.124985,171.15625c0,94.470856 76.654129,171.125 171.124985,171.125c94.470856,0.000061 171.156219,-76.654144 171.156219,-171.125c0,-94.470856 -76.685364,-171.15625 -171.156219,-171.15625zm0.03125,96.84375c1.281433,0 2.546936,0.029541 3.8125,0.09375c5.062195,0.25708 10.004211,1.0271 14.75,2.25c1.186493,0.305511 2.368439,0.638062 3.53125,1c2.325562,0.724365 4.591003,1.559204 6.8125,2.5c3.332397,1.410278 6.530518,3.075592 9.59375,4.9375c2.042023,1.242035 4.030701,2.572784 5.9375,4c2.860413,2.139618 5.572693,4.478943 8.09375,7c5.041718,5.044647 9.349518,10.807556 12.78125,17.125c1.144043,2.105103 2.184814,4.247131 3.125,6.46875c3.296844,7.785065 5.300018,16.255768 5.75,25.125c0.063202,1.255402 0.09375,2.541473 0.09375,3.8125c0,2.562866 -0.121246,5.066254 -0.375,7.5625c-0.001038,0.010254 0.001038,0.020996 0,0.03125c-0.126343,1.237671 -0.282318,2.468536 -0.46875,3.6875c-0.001556,0.010162 0.001556,0.021088 0,0.03125c-0.18692,1.218811 -0.410767,2.426422 -0.65625,3.625c-0.002045,0.01001 0.002045,0.02124 0,0.03125c-0.245972,1.198456 -0.540741,2.385803 -0.84375,3.5625c-0.002502,0.009796 0.002533,0.021484 0,0.03125c-0.303467,1.176575 -0.641022,2.34671 -1,3.5c-0.00296,0.009521 0.00296,0.021729 0,0.03125c-1.446564,4.641052 -3.341583,9.07959 -5.625,13.28125c-0.004395,0.008087 0.004395,0.023163 0,0.03125c-1.140442,2.09668 -2.388397,4.125092 -3.71875,6.09375c-0.004883,0.007233 0.004883,0.024017 0,0.03125c-0.663239,0.980743 -1.354401,1.928345 -2.0625,2.875c-0.005096,0.006836 0.005096,0.024445 0,0.03125c-0.708618,0.946716 -1.466797,1.870209 -2.21875,2.78125c-0.005157,0.006287 0.005188,0.024963 0,0.03125c-1.509857,1.828125 -3.106079,3.574829 -4.78125,5.25c-0.845398,0.845917 -1.708557,1.664185 -2.59375,2.46875c-0.879608,0.79953 -1.770172,1.586609 -2.6875,2.34375c-3.669037,3.02832 -7.633789,5.712189 -11.84375,8c-2.105103,1.144043 -4.278381,2.184814 -6.5,3.125c-2.221497,0.940063 -4.486938,1.776245 -6.8125,2.5c-1.162811,0.361938 -2.344757,0.694519 -3.53125,1c-4.745789,1.221863 -9.687805,1.993164 -14.75,2.25c-1.265564,0.06424 -2.531067,0.09375 -3.8125,0.09375c-1.281433,0 -2.546936,-0.02951 -3.8125,-0.09375c-5.062195,-0.25708 -10.004211,-1.0271 -14.75,-2.25c-1.186493,-0.305481 -2.368408,-0.638062 -3.53125,-1c-2.325562,-0.724365 -4.591003,-1.559174 -6.8125,-2.5c-3.332397,-1.410278 -6.530487,-3.075592 -9.59375,-4.9375c-2.042023,-1.242035 -4.03067,-2.572784 -5.9375,-4c-3.82016,-2.857513 -7.328949,-6.068451 -10.53125,-9.59375c-0.799469,-0.880035 -1.58667,-1.769745 -2.34375,-2.6875c-3.028595,-3.669312 -5.711945,-7.633545 -8,-11.84375c-1.144012,-2.105103 -2.184814,-4.247131 -3.125,-6.46875c-0.003754,-0.008881 0.003754,-0.022369 0,-0.03125c-0.466278,-1.102234 -0.929901,-2.215179 -1.34375,-3.34375c-0.003387,-0.009216 0.003387,-0.022003 0,-0.03125c-0.416748,-1.137878 -0.794373,-2.274414 -1.15625,-3.4375c-1.812561,-5.823547 -2.930969,-11.942474 -3.25,-18.28125c-0.064209,-1.265594 -0.09375,-2.531067 -0.09375,-3.8125c0,-2.573456 0.119171,-5.087463 0.375,-7.59375c0.125824,-1.237793 0.282837,-2.468384 0.46875,-3.6875c0.001556,-0.010162 -0.001556,-0.021057 0,-0.03125c0.186401,-1.218933 0.411285,-2.42627 0.65625,-3.625c0.002045,-0.009949 -0.002045,-0.021271 0,-0.03125c0.245453,-1.198608 0.54126,-2.385651 0.84375,-3.5625c0.002502,-0.009705 -0.002502,-0.021515 0,-0.03125c0.302948,-1.176727 0.641541,-2.346558 1,-3.5c0.00293,-0.00943 -0.00293,-0.02182 0,-0.03125c0.361877,-1.162781 0.739502,-2.299957 1.15625,-3.4375c1.25351,-3.421356 2.747284,-6.710083 4.46875,-9.875c0.57196,-1.05249 1.160675,-2.072723 1.78125,-3.09375c0.625092,-1.028381 1.264679,-2.036377 1.9375,-3.03125c0.662872,-0.980927 1.354797,-1.928162 2.0625,-2.875c0.004883,-0.006531 -0.004883,-0.024719 0,-0.03125c0.708252,-0.946869 1.467163,-1.870026 2.21875,-2.78125c0.005005,-0.006042 -0.005005,-0.025208 0,-0.03125c0.75708,-0.917267 1.544281,-1.807953 2.34375,-2.6875c0.79953,-0.879608 1.597137,-1.722137 2.4375,-2.5625c0.845428,-0.845917 1.708588,-1.664154 2.59375,-2.46875c0.879608,-0.79953 1.770172,-1.586609 2.6875,-2.34375c3.669037,-3.02832 7.633789,-5.712189 11.84375,-8c2.105103,-1.144012 4.278412,-2.184814 6.5,-3.125c2.221497,-0.940063 4.486938,-1.776215 6.8125,-2.5c1.162842,-0.361938 2.344757,-0.694489 3.53125,-1c4.745789,-1.221863 9.687805,-1.993134 14.75,-2.25c1.265564,-0.064209 2.531067,-0.09375 3.8125,-0.09375z" id="path2249" stroke-miterlimit="4" stroke-width="0" fill="#a9a9a9" opacity="0.793939"/>
   <path d="m261.060516,86.428711c-82.169159,0 -148.84375,66.705841 -148.84375,148.875c0,82.169159 66.674622,148.84375 148.84375,148.84375c82.169159,0 148.875031,-66.674591 148.875031,-148.84375c0,-82.169159 -66.705872,-148.875 -148.875031,-148.875zm0.03125,74.5625c41.005707,0 74.28125,33.306793 74.28125,74.3125c0,41.005707 -33.275543,74.28125 -74.28125,74.28125c-41.005707,0 -74.28125,-33.306793 -74.28125,-74.3125c0,-41.005707 33.275543,-74.28125 74.28125,-74.28125z" id="path2252" stroke-miterlimit="4" stroke-width="0" fill="#3f3f3f" opacity="0.793939"/>
   <path id="path3318" d="m261.076111,144.290863c-50.300995,0 -91.125,40.75798 -91.125,90.981201c0,50.223206 40.82402,91.013153 91.125,91.013153c50.300995,0 91.125,-40.757996 91.125,-90.981216l0,-0.031937c0,-50.223221 -40.824005,-90.981201 -91.125,-90.981201zm0,20.604935c38.981506,0 70.618683,31.542892 70.618683,70.408203c-0.000031,38.865311 -31.637207,70.376266 -70.618683,70.376266c-38.981476,0 -70.618668,-31.542908 -70.618668,-70.408203c0,-38.865326 31.637192,-70.376266 70.618668,-70.376266z" filter="url(#filter3340)" stroke-miterlimit="4" stroke-width="0" fill="#696969" opacity="0.587879"/>
   <path d="m261.076141,146.272461c-49.05899,0 -88.875,39.870453 -88.875,89c0,49.129547 39.81601,89.03125 88.875,89.03125c49.05899,0 88.875,-39.870453 88.875,-89l0,-0.03125c0,-49.129547 -39.815979,-89 -88.875,-89zm0,20.15625c38.019012,0 68.875,30.856018 68.875,68.875c0,38.018982 -30.856018,68.84375 -68.875,68.84375c-38.018982,0 -68.875,-30.856018 -68.875,-68.875c0,-38.018982 30.856018,-68.84375 68.875,-68.84375z" id="path3313" stroke-miterlimit="4" stroke-width="0" fill="#c0c0c0"/>
  </g>
 </g>
</svg>